<?xml version="1.0" standalone="no"?><!DOCTYPE svg PUBLIC "-//W3C//DTD SVG 1.1//EN" "http://www.w3.org/Graphics/SVG/1.1/DTD/svg11.dtd"><svg t="1550736311215" class="icon" style="" viewBox="0 0 1024 1024" version="1.1" xmlns="http://www.w3.org/2000/svg" p-id="11437" xmlns:xlink="http://www.w3.org/1999/xlink" width="16" height="16"><defs><style type="text/css"></style></defs><path d="M475.733333 1017.6a469.333333 469.333333 0 0 1 0-938.666667 42.666667 42.666667 0 0 1 42.666667 42.666667v384h384a42.666667 42.666667 0 0 1 42.666667 42.666667 469.333333 469.333333 0 0 1-469.333334 469.333333z m-42.666666-853.333333a384 384 0 1 0 426.666666 426.666666h-384a42.666667 42.666667 0 0 1-42.666666-42.666666z" p-id="11438" fill="#707070"></path><path d="M945.066667 462.933333h-362.666667a21.76 21.76 0 0 1-21.333333-21.333333v-362.666667a21.333333 21.333333 0 0 1 21.333333-21.333333 384 384 0 0 1 384 384 21.333333 21.333333 0 0 1-21.333333 21.333333z m-341.333334-42.666666h319.573334a341.333333 341.333333 0 0 0-319.573334-319.573334z" p-id="11439" fill="#707070"></path></svg>