<?xml version="1.0" standalone="no"?><!DOCTYPE svg PUBLIC "-//W3C//DTD SVG 1.1//EN" "http://www.w3.org/Graphics/SVG/1.1/DTD/svg11.dtd"><svg t="1550803227861" class="icon" style="" viewBox="0 0 1066 1024" version="1.1" xmlns="http://www.w3.org/2000/svg" p-id="14160" xmlns:xlink="http://www.w3.org/1999/xlink" width="16.65625" height="16"><defs><style type="text/css"></style></defs><path d="M464.064646 900.008081c-27.280808 0-49.519192 18.230303-49.519191 40.727273s22.109091 40.727273 49.519191 40.727272h552.856566c27.280808 0 49.519192-18.230303 49.519192-40.727272s-22.109091-40.727273-49.519192-40.727273H464.064646z m0-298.666667c-27.280808 0-49.519192 18.230303-49.519191 40.727273s22.109091 40.727273 49.519191 40.727273h552.856566c27.280808 0 49.519192-18.230303 49.519192-40.727273s-22.109091-40.727273-49.519192-40.727273H464.064646z m0-298.795959c-27.280808 0-49.519192 18.230303-49.519191 40.727272s22.109091 40.727273 49.519191 40.727273h552.856566c27.280808 0 49.519192-18.230303 49.519192-40.727273S1044.331313 302.545455 1016.921212 302.545455H464.064646z m0-298.666667c-27.280808 0-49.519192 18.230303-49.519191 40.727273S436.654545 85.333333 464.064646 85.333333h552.856566c27.280808 0 49.519192-18.230303 49.519192-40.727272S1044.331313 3.878788 1016.921212 3.878788H464.064646zM69.591919 235.183838l91.668687-91.797979v838.076767c0 22.49697 18.230303 40.727273 40.727273 40.727273s40.727273-18.230303 40.727273-40.727273V44.993939c0-16.420202-9.955556-31.288889-25.082829-37.624242C202.375758 1.034343 184.921212 4.525253 173.284848 16.161616L11.927273 177.519192c-15.90303 15.90303-15.90303 41.761616 0 57.664646 15.90303 15.90303 41.761616 15.90303 57.664646 0z m0 0" p-id="14161" fill="#8a8a8a"></path></svg>