<?xml version="1.0" standalone="no"?><!DOCTYPE svg PUBLIC "-//W3C//DTD SVG 1.1//EN" "http://www.w3.org/Graphics/SVG/1.1/DTD/svg11.dtd"><svg t="1550803150266" class="icon" style="" viewBox="0 0 1024 1024" version="1.1" xmlns="http://www.w3.org/2000/svg" p-id="13899" xmlns:xlink="http://www.w3.org/1999/xlink" width="16" height="16"><defs><style type="text/css"></style></defs><path d="M828.5 886.3H238.4c-9.9 0-18-8.1-18-18v-4c0-9.9 8.1-18 18-18h590.1c9.9 0 18 8.1 18 18v4c0 9.9-8.1 18-18 18zM828.5 684.6H238.4c-9.9 0-18-8.1-18-18v-4c0-9.9 8.1-18 18-18h590.1c9.9 0 18 8.1 18 18v4c0 9.9-8.1 18-18 18zM409 449.5H230.2c-17.6 0-32-14.4-32-32V238.7c0-17.6 14.4-32 32-32H409c17.6 0 32 14.4 32 32v178.8c0 17.6-14.4 32-32 32z m-170.8-40H401V246.7H238.2v162.8zM822.4 437.5H552.9c-11 0-20-9-20-20s9-20 20-20h269.5c11 0 20 9 20 20s-9 20-20 20zM822.4 269.5H552.9c-11 0-20-9-20-20s9-20 20-20h269.5c11 0 20 9 20 20s-9 20-20 20z" fill="#515151" p-id="13900"></path><path d="M884.4 1024H182.5c-46.3 0-83.9-37.7-83.9-83.9V91.9C98.6 45.7 136.3 8 182.5 8h701.9c46.3 0 83.9 37.7 83.9 83.9V940c0 46.3-37.7 84-83.9 84zM182.5 48c-24.2 0-43.9 19.7-43.9 43.9V940c0 24.2 19.7 43.9 43.9 43.9h701.9c24.2 0 43.9-19.7 43.9-43.9V91.9c0-24.2-19.7-43.9-43.9-43.9H182.5z" fill="#515151" p-id="13901"></path></svg>