<?xml version="1.0" standalone="no"?><!DOCTYPE svg PUBLIC "-//W3C//DTD SVG 1.1//EN" "http://www.w3.org/Graphics/SVG/1.1/DTD/svg11.dtd"><svg t="1551690616169" class="icon" style="" viewBox="0 0 1024 1024" version="1.1" xmlns="http://www.w3.org/2000/svg" p-id="12062" xmlns:xlink="http://www.w3.org/1999/xlink" width="128" height="128"><defs><style type="text/css"></style></defs><path d="M972.009394 383.395994l-1.128707-0.562819c-1.12666-0.563842-1.690502-1.128707-2.817162-2.255367l-12.966313-9.019421L588.669682 112.239294c-58.631352-41.152259-94.146217-41.152259-152.773476 0L53.681108 382.269333l-1.691525 1.126661c-3.945869 3.945869-6.764054 9.583263-6.764054 15.785521 0 11.838629 9.584286 21.422915 21.421892 21.422915 3.382027 0 7.328919-1.127683 10.147104-2.819208l0.563842-0.563842h0.563842c0.563842-0.562818 1.127683-0.562818 1.691525-1.127684l33.259498-22.548552v549.080524h799.379173V394.108986l29.878494 19.730367c3.944845 3.944845 9.018398 6.200212 15.219633 6.200212 11.838629 0 21.421892-9.583263 21.421892-21.421892 0-5.637394-2.816139-11.274788-6.76303-15.221679zM864.898911 895.832945H159.663908V358.593098L465.208812 147.19134c41.153282-29.313629 58.628282-29.313629 99.780541 0l299.909558 211.400735v537.24087z" p-id="12063"></path><path d="M297.215704 356.901573c-35.514865 0-64.830541 29.313629-64.830541 64.829517s29.315676 64.830541 64.830541 64.830541c35.515888 0 64.830541-29.313629 64.830541-64.830541s-28.750811-64.829518-64.830541-64.829517z m0 182.087105c-35.514865 0-64.830541 29.313629-64.830541 64.828494 0 35.517935 29.315676 64.831564 64.830541 64.831564 35.515888 0 64.830541-29.313629 64.830541-64.831564-0.001023-35.513842-28.750811-64.828494-64.830541-64.828494z m0 182.649923c-35.514865 0-64.830541 29.313629-64.830541 64.830541s29.315676 64.828494 64.830541 64.828494c35.515888 0 64.830541-29.312606 64.830541-64.828494-0.001023-36.07973-28.750811-64.830541-64.830541-64.830541z m211.965599-182.649923c-35.515888 0-64.830541 29.313629-64.830541 64.828494 0 35.517935 29.314653 64.831564 64.830541 64.831564s64.830541-29.313629 64.830541-64.831564c-0.564865-35.513842-29.314653-64.828494-64.830541-64.828494z m0 182.649923c-35.515888 0-64.830541 29.313629-64.830541 64.830541s29.314653 64.828494 64.830541 64.828494 64.830541-29.312606 64.830541-64.828494c-0.564865-36.07973-29.314653-64.830541-64.830541-64.830541z m217.602993 129.09724c35.514865 0 64.829518-29.315676 64.829518-64.831564 0-35.513842-29.313629-64.828494-64.829518-64.828494s-64.829518 29.313629-64.829517 64.828494c0.001023 35.514865 28.750811 64.831564 64.829517 64.831564z" p-id="12064"></path></svg>