<?xml version="1.0" standalone="no"?><!DOCTYPE svg PUBLIC "-//W3C//DTD SVG 1.1//EN" "http://www.w3.org/Graphics/SVG/1.1/DTD/svg11.dtd"><svg t="1551670416795" class="icon" style="" viewBox="0 0 1024 1024" version="1.1" xmlns="http://www.w3.org/2000/svg" p-id="11067" xmlns:xlink="http://www.w3.org/1999/xlink" width="128" height="128"><defs><style type="text/css"></style></defs><path d="M106.775382 762.681301v201.508429H834.935319v-201.508429h-728.159937z m700.863975 170.599765h-673.166601V793.589965H807.639357v139.691101z m-274.565268-570.00392v-251.684829h164.980007v251.684829h-164.980007z m134.071344-27.697373v-196.691494h-103.162681v196.691494H667.145433z" fill="#515151" p-id="11068"></path><path d="M559.96864 340.396707h-251.68483l22.479028-109.585261-22.479028-91.923167h251.68483v201.508428z m-27.295963-170.599765h-208.332418l15.655037 60.211682-15.655037 79.47942h208.332418v-139.691102z" fill="#515151" p-id="11069"></path><path d="M311.4951 793.589965l-190.268914-417.46766 115.606429-6.823991 81.486476-65.831438L604.525284 793.589965h-293.030184z m241.248138-30.908664l-248.47354-423.890239-67.838495 41.345355-73.05684 4.415523 169.395531 378.129361h219.973344zM282.994904 239.642493c0 51.380635-41.746766 92.72599-92.72599 92.72599-51.380635 0-92.72599-41.746766-92.72599-92.72599 0-51.380635 41.746766-92.72599 92.72599-92.72599 51.380635 0 92.72599 41.345355 92.72599 92.72599z m-92.72599-75.465308c-41.746766 0-75.063897 33.718542-75.063896 75.063897 0 41.746766 33.718542 75.063897 75.063896 75.063896 41.746766 0 75.063897-33.718542 75.063897-75.063896 0-41.345355-33.718542-75.063897-75.063897-75.063897zM799.611133 383.347707l-53.387691-49.373579v-191.071737l53.387691-49.77499 172.606821 90.718934 27.697373-16.45786-204.719717-107.578205-76.268131 71.049785v214.754998l76.268131 71.049784 204.719717-107.578204-27.697373-16.45786z" fill="#515151" p-id="11070"></path><path d="M347.622109 239.642493c0 87.106233-70.648373 157.754606-157.754606 157.754606-87.106233 0-157.754606-70.648373-157.754606-157.754606 0-87.106233 70.648373-157.754606 157.754606-157.754606 87.507644 0 157.754606 70.648373 157.754606 157.754606z m-157.353195-127.648765c-70.648373 0-127.648765 57.000392-127.648765 127.648765 0 70.246962 57.000392 127.648765 127.648765 127.648765 70.246962 0 127.648765-57.000392 127.648765-127.648765 0-70.246962-57.401803-127.648765-127.648765-127.648765z" fill="#515151" p-id="11071"></path></svg>