<?xml version="1.0" standalone="no"?><!DOCTYPE svg PUBLIC "-//W3C//DTD SVG 1.1//EN" "http://www.w3.org/Graphics/SVG/1.1/DTD/svg11.dtd"><svg t="1550888508439" class="icon" style="" viewBox="0 0 1024 1024" version="1.1" xmlns="http://www.w3.org/2000/svg" p-id="2177" xmlns:xlink="http://www.w3.org/1999/xlink" width="128" height="128"><defs><style type="text/css"></style></defs><path d="M735.6 813.8H288.4c-9.3 0-16.8-7.5-16.8-16.2 0-9.3 7.5-16.8 16.8-16.8h447.2c9.3 0 16.8 7.5 16.8 16.8 0 8.7-7.5 16.2-16.8 16.2zM715.3 245H308.1c-8.7 0-15.1-7-15.1-15.1 0-8.7 7-15.1 15.1-15.1h407.2c8.7 0 15.1 7 15.1 15.1 0.6 8.1-6.4 15.1-15.1 15.1z" fill="#232323" p-id="2178"></path><path d="M673 612.8v-1.2c-26.1-44.6-60.2-74.1-96.7-91.5 36.5-18.5 70.1-47.5 96.7-92.1v-1.2c26.1-44.6 43.4-104.9 46.3-186h-30.1c-2.3 74.7-18 130.3-41.7 171.5l-0.5 0.7c-29.5 51.6-62 79.4-104.9 92.7l-1.7 0.6h-0.6c-1.2 0.6-1.7 1.2-2.3 1.7l-2.9 2.3v0.6c-0.6 0.6-0.6 1.2-1.2 2.3l-0.6 0.6-1.2 3.5v5.8l1.2 3.5 0.6 0.6c0.6 1.2 0.6 1.2 1.2 2.3v0.6l1.2 1.2v-0.6l1.2 0.6 0.6 0.6c0.6 0.6 1.2 0.6 2.3 1.2h0.6l1.7 1.2c43.4 13.9 75.3 41.1 105.4 92.7l0.6 0.6c12.7 21.4 22 47.5 29.5 77 1.7 8.7 7 27.2 8.1 51.6-23.8-21.4-89.2-36.5-168-37.1v-234c0.6 0 1.2 0 2.3-0.6v-0.6l4.1-1.7h1.2c28.4-9.3 51.6-23.2 70.7-41.7 20.3-20.3 35.9-45.2 46.3-73 2.9-7.5-0.6-16.2-8.7-19.1-7.5-2.9-16.2 0.6-19.1 8.1v0.6c-9.3 23.2-22 44.6-39.4 62-15.7 14.7-34.2 26.9-58 33.9l-0.6 0.6-1.7 0.6-2.3 0.6-1.7-0.6-0.6-0.6-1.7-0.6c-23.2-7.5-42.9-19.1-57.9-34.2-18-17.4-30.7-38.2-40-62-2.9-7.5-11.6-11.6-18.5-8.7-7.5 2.9-11 11-8.7 19.1 11 27.8 26.1 52.7 46.9 73 18.5 18.5 41.7 32.4 70.1 41.7h0.6l4.1 1.7 1.2 0.6c0 0.6 0.6 0.6 1.7 0.6v234c-73.6 0-137.9 12.2-168.6 30.1 1.2-12.2 4.1-25.5 8.1-44.6 8.1-30.1 18-55.6 30.1-77l0.6-0.6c29.5-51.6 62-78.8 105.4-92.7l1.7-1.2h0.6c0.6-0.6 1.2-0.6 2.3-1.2l0.6-0.6 1.2-0.6v-0.4l0.6-1.2v-0.6c0.6 0 1.2-1.2 1.7-2.3v-0.6c0.6-1.2 1.2-2.3 1.2-3.5v-5.2c0-0.6-0.6-2.3-1.2-3.5v-0.6c-0.6-0.6-1.2-1.7-1.7-2.3v-0.6l-1.7-1.7-1.7 0.6c-0.6-0.6-1.2-1.2-2.3-1.7h-0.6l-1.7-0.6c-42.9-13.3-75.3-41.1-105.4-93.3h-0.6c-23.2-41.1-38.8-96.7-41.7-171.5h-30.1c2.9 80.5 20.3 140.8 46.3 186l0.6 1.2c25.5 44.6 59.7 73.6 96.2 91.5-36.5 18-70.1 47.5-96.2 92.1l-0.6 1.2c-24.3 42.3-41.7 99.1-45.2 174.4h412.5c-3.7-75.9-20.5-132.7-45.5-175z" fill="#232323" p-id="2179"></path></svg>