<?xml version="1.0" standalone="no"?><!DOCTYPE svg PUBLIC "-//W3C//DTD SVG 1.1//EN" "http://www.w3.org/Graphics/SVG/1.1/DTD/svg11.dtd"><svg t="1552880879570" class="icon" style="" viewBox="0 0 1024 1024" version="1.1" xmlns="http://www.w3.org/2000/svg" p-id="8407" xmlns:xlink="http://www.w3.org/1999/xlink" width="128" height="128"><defs><style type="text/css"></style></defs><path d="M962 790.4499998L805.0000001 633.4375001c87.26249971-101.1999999 83.11250039-254.00000039-12.8874999-349.99999981-50.2999998-50.2999998-116.2125-75.4374999-182.1375-75.4374999s-131.8375002 25.1499999-182.1375 75.4374999c-100.58749981 100.58749981-100.58749981 263.67500039 0 364.26249932a256.74999961 256.74999961 0 0 0 182.1375 75.43750078c59.9124999 0 119.68750019-20.99999971 167.87499961-62.55l156.9999999 157.01249971L962 790.4499998z m-352.0249998-105.7124997a217.6875 217.6875 0 0 1-154.97499991-64.19999971c-85.4499999-85.4499999-85.4499999-224.4999999 0-309.96250049a217.7375001 217.7375001 0 0 1 154.97499991-64.19999971c58.53750029 0 113.58749971 22.79999971 154.9749999 64.19999971 85.4499999 85.4499999 85.4499999 224.4999999 0 309.96250049a217.7375001 217.7375001 0 0 1-154.97499991 64.19999971zM62 211.66250029h277.56249961v38.39999942H62zM62 784.8249998h418.37500019v38.4000003H62zM62 500.59999971h213.51250019v38.40000029H62z" fill="#707070" p-id="8408"></path></svg>